<svg width="56" height="56" viewBox="0 0 56 56" fill="none" xmlns="http://www.w3.org/2000/svg">
<path d="M28 29.9444C28.5157 29.9444 29.0103 29.7396 29.375 29.3749C29.7396 29.0103 29.9445 28.5157 29.9445 28V8.55553C29.9445 8.03983 29.7396 7.54525 29.375 7.1806C29.0103 6.81594 28.5157 6.61108 28 6.61108C27.4843 6.61108 26.9898 6.81594 26.6251 7.1806C26.2605 7.54525 26.0556 8.03983 26.0556 8.55553V28C26.0556 28.5157 26.2605 29.0103 26.6251 29.3749C26.9898 29.7396 27.4843 29.9444 28 29.9444Z" fill="white"/>
<path d="M36.9251 10.7141C36.4661 10.4768 35.9317 10.4317 35.4394 10.5885C34.9471 10.7453 34.5373 11.0912 34.3001 11.5502C34.0628 12.0092 34.0177 12.5436 34.1745 13.0358C34.3313 13.5281 34.6772 13.938 35.1362 14.1752C38.2345 15.7748 40.7056 18.3691 42.1527 21.5415C43.5999 24.714 43.9391 28.2807 43.116 31.6691C42.293 35.0575 40.3553 38.0711 37.6141 40.2262C34.8728 42.3813 31.487 43.5529 28.0001 43.5529C24.5131 43.5529 21.1273 42.3813 18.3861 40.2262C15.6448 38.0711 13.7071 35.0575 12.8841 31.6691C12.061 28.2807 12.4003 24.714 13.8474 21.5415C15.2945 18.3691 17.7656 15.7748 20.8639 14.1752C21.0912 14.0577 21.2931 13.8966 21.4581 13.7012C21.6231 13.5057 21.748 13.2796 21.8257 13.0358C21.9033 12.7921 21.9322 12.5354 21.9106 12.2805C21.8891 12.0256 21.8175 11.7774 21.7001 11.5502C21.5826 11.3229 21.4215 11.121 21.226 10.956C21.0306 10.791 20.8045 10.6661 20.5607 10.5885C20.317 10.5108 20.0603 10.482 19.8054 10.5035C19.5505 10.5251 19.3023 10.5966 19.0751 10.7141C15.2031 12.7145 12.1154 15.9577 10.3075 19.9233C8.49963 23.8888 8.07639 28.3467 9.10572 32.5816C10.1351 36.8165 12.5573 40.5829 15.9836 43.2762C19.41 45.9695 23.6419 47.4337 28.0001 47.4337C32.3583 47.4337 36.5901 45.9695 40.0165 43.2762C43.4429 40.5829 45.8651 36.8165 46.8944 32.5816C47.9237 28.3467 47.5005 23.8888 45.6926 19.9233C43.8847 15.9577 40.7971 12.7145 36.9251 10.7141Z" fill="white"/>
</svg>
