<svg xmlns="http://www.w3.org/2000/svg" viewBox="0 0 349.67 61.97"><title>Asset 1</title><g id="Layer_2" data-name="Layer 2"><g id="Artwork"><path d="M119.87,10.91c-4.31-3.16-10.46-4.76-18.3-4.76-2.87,0-5.56.07-8,.19A39.57,39.57,0,0,0,88,6.93c-3.39.68-5.25,2.9-5.25,6.25V60.93h11.5v-18c1.83.2,3.27.34,4.37.42,1.41.1,2.7.15,3.83.15,7.64,0,13.61-1.59,17.72-4.73s6.38-7.91,6.38-13.93S124.32,14.16,119.87,10.91Zm-18.52,5.64c13.27,0,13.27,6.22,13.27,8.26s0,8.27-12.75,8.27c-1.5,0-3.14-.07-4.88-.22-1.07-.09-2-.19-2.72-.29V16.84l2.09-.15C98,16.6,99.7,16.55,101.35,16.55Z" fill="#231f20"/><path d="M159.62,26.31c0-1.45-.61-3.5-3.51-5.07a18.07,18.07,0,0,0-8.52-1.66c-5.31,0-9.56,1.4-12.63,4.17s-4.68,6.73-4.68,11.66V60.93h11.36V37.87c0-5.41,2.25-7.82,7.3-7.82a14.94,14.94,0,0,1,6.74,1.49l.72.36.68-.43a5.18,5.18,0,0,0,1.73-2.11A6.39,6.39,0,0,0,159.62,26.31Z" fill="#231f20"/><path d="M191.22,22.37A22.62,22.62,0,0,0,180,19.58a22.29,22.29,0,0,0-11.14,2.8A21.36,21.36,0,0,0,161,30a20.56,20.56,0,0,0-2.93,10.82A20.52,20.52,0,0,0,161,51.59a21.39,21.39,0,0,0,7.87,7.59A22.39,22.39,0,0,0,180,62a22.62,22.62,0,0,0,11.18-2.79,21.14,21.14,0,0,0,7.88-7.6A20.73,20.73,0,0,0,202,40.78,20.76,20.76,0,0,0,199.1,30,21.15,21.15,0,0,0,191.22,22.37Zm-5.9,27.92a10.84,10.84,0,0,1-10.55,0,9.47,9.47,0,0,1-3.61-3.81,11.93,11.93,0,0,1-1.33-5.7,12,12,0,0,1,1.33-5.71,9.45,9.45,0,0,1,3.61-3.8,10.84,10.84,0,0,1,10.55,0,9.45,9.45,0,0,1,3.61,3.8,13,13,0,0,1,0,11.41A9.47,9.47,0,0,1,185.32,50.29Z" fill="#231f20"/><path d="M261.94,21.46a8.49,8.49,0,0,0-3.95-.83,5.87,5.87,0,0,0-4.33,1.5,9.22,9.22,0,0,0-2.12,4c-1.14,4.05-2.4,8.16-3.74,12.21-.88,2.62-1.74,5.1-2.58,7.42l-1.39-4.2c-1-3-2-6.23-3-9.52s-1.94-6.45-2.83-9.44l-.18-.59-.56-.28a16.39,16.39,0,0,0-1.66-.63,9.78,9.78,0,0,0-3.15-.48A6.4,6.4,0,0,0,228.09,22,7.79,7.79,0,0,0,226,25.61c-.74,2.58-1.55,5.33-2.42,8.23s-1.73,5.72-2.6,8.48c-.37,1.16-.72,2.25-1.06,3.29-.46-1.32-.94-2.72-1.45-4.22-1.05-3-2.11-6.28-3.16-9.62s-2-6.47-2.74-9.34l-.17-.62-.58-.29a11.05,11.05,0,0,0-1.43-.53,10.3,10.3,0,0,0-3-.36A5.32,5.32,0,0,0,201.66,26a12.07,12.07,0,0,0,.46,2.73c.28,1.13.74,2.65,1.41,4.68.91,2.57,2.21,6,3.86,10.3s3.89,9.79,6.62,16.33l.36.88h10.74l.35-.92c.41-1.08.93-2.59,1.59-4.62s1.36-4.21,2.13-6.65,1.54-4.9,2.32-7.39l.76-2.46.76,2.46c.77,2.49,1.56,5,2.35,7.4s1.54,4.66,2.21,6.66S238.8,59,239.2,60l.35.92h10.72l.38-.86c1.24-2.84,2.57-6,3.93-9.48s2.7-6.91,4-10.35S261,33.61,262,30.75s1.68-5.18,2.09-6.87l.19-.78-.58-.57A6.74,6.74,0,0,0,261.94,21.46Z" fill="#231f20"/><path d="M271.56,3.84a6.32,6.32,0,0,0-4.71,1.93A6.49,6.49,0,0,0,265,10.49a6.57,6.57,0,0,0,1.86,4.73h0a6.75,6.75,0,0,0,9.43,0,6.57,6.57,0,0,0,1.86-4.73,6.57,6.57,0,0,0-1.86-4.73A6.37,6.37,0,0,0,271.56,3.84Z" fill="#231f20"/><path d="M274.31,20.88a12.35,12.35,0,0,0-2.45-.25,6.54,6.54,0,0,0-4.17,1.31A5,5,0,0,0,265.88,26V60.93h11.36V22l-.73-.4A7.54,7.54,0,0,0,274.31,20.88Z" fill="#231f20"/><path d="M312.08,26.31c0-1.45-.61-3.5-3.51-5.07a18,18,0,0,0-8.51-1.66c-5.32,0-9.57,1.4-12.63,4.17s-4.69,6.73-4.69,11.66V60.93H294.1V37.87c0-5.41,2.25-7.82,7.3-7.82a15,15,0,0,1,6.75,1.49l.71.36.68-.43a5.27,5.27,0,0,0,1.74-2.11A6.49,6.49,0,0,0,312.08,26.31Z" fill="#231f20"/><path d="M343,49.53A18.65,18.65,0,0,1,333.55,52a13.51,13.51,0,0,1-7.74-2.06,7.64,7.64,0,0,1-2.92-3.5l1.11,0c1,0,1.91,0,2.61,0,7.83,0,13.44-1,17.15-3.09a10.81,10.81,0,0,0,5.91-10,12.09,12.09,0,0,0-5-10.2c-3.2-2.4-7.39-3.61-12.45-3.61A22.54,22.54,0,0,0,321,22.34,20.28,20.28,0,0,0,313.29,30a21.92,21.92,0,0,0-2.8,11.12A21.38,21.38,0,0,0,313.22,52a19.31,19.31,0,0,0,7.6,7.37A22.84,22.84,0,0,0,331.91,62a35,35,0,0,0,5.76-.5A32.76,32.76,0,0,0,343.21,60a22.43,22.43,0,0,0,4.38-2.08l1.11-.7-4.43-8.45ZM332.06,29A8.43,8.43,0,0,1,337,30.28a3.37,3.37,0,0,1,1.59,3c0,3.69-6.24,4.47-11.48,4.47h-3.73l-1.15,0A9.81,9.81,0,0,1,325,31.75,9.53,9.53,0,0,1,332.06,29Z" fill="#231f20"/><rect x="24.99" y="25.03" width="14.67" height="14.23" rx="6.47" transform="translate(-13.26 32.27) rotate(-45)" fill="#231f20"/><path d="M54.64,50.82l.94-.93C64,41.46,67.73,21.66,54.63,8.57,40.56-5.5,20.56.38,13.31,7.63L8.75,12.18a29.89,29.89,0,0,0,0,42.27l6.07,6.06H32.06L17.85,46.3a18.35,18.35,0,0,1,0-26l4.08-4.08c2.79-2.79,15.34-7.81,24.08.94S50.25,38,47,41.27l-6.24,6.24a4.69,4.69,0,0,0,0,6.63l6.37,6.37H64.34Z" fill="#231f20"/></g></g></svg>