<svg width="24" height="24" viewBox="0 0 24 24" fill="none" xmlns="http://www.w3.org/2000/svg">
<path fill-rule="evenodd" clip-rule="evenodd" d="M6 3H9V4.5H6C5.30964 4.5 4.75 5.05964 4.75 5.75V8.75H3.25V5.75C3.25 4.23122 4.48122 3 6 3ZM15 3V4.5H18C18.6904 4.5 19.25 5.05964 19.25 5.75V8.75H20.75V5.75C20.75 4.23122 19.5188 3 18 3H15ZM18 19H15V20.5H18C19.5188 20.5 20.75 19.2688 20.75 17.75V14.75H19.25V17.75C19.25 18.4404 18.6904 19 18 19ZM4.75 17.75V14.75H3.25V17.75C3.25 19.2688 4.48122 20.5 6 20.5H9V19H6C5.30964 19 4.75 18.4404 4.75 17.75ZM2.75 11C2.33579 11 2 11.3358 2 11.75C2 12.1642 2.33579 12.5 2.75 12.5H21.25C21.6642 12.5 22 12.1642 22 11.75C22 11.3358 21.6642 11 21.25 11H2.75Z" fill="#042530"/>
</svg>
