<svg width="120" height="28" viewBox="0 0 120 28" fill="none" xmlns="http://www.w3.org/2000/svg">
<path d="M17.1243 4.24884C15.2052 2.8459 12.4623 2.1333 8.97576 2.1333C7.69781 2.1333 6.50001 2.16002 5.42244 2.21792C4.3137 2.27582 3.5033 2.36044 2.9378 2.48069C1.42831 2.78355 0.600098 3.77229 0.600098 5.2643V26.5266H5.72523V18.4964C6.54009 18.5855 7.17684 18.6479 7.66664 18.6835C8.29448 18.728 8.86889 18.7503 9.37205 18.7503C12.7784 18.7503 15.4323 18.0422 17.2624 16.6437C19.1459 15.2051 20.1032 13.1207 20.1032 10.4396C20.1032 7.75841 19.1014 5.69632 17.1199 4.24439L17.1243 4.24884ZM8.87779 6.76077C14.7866 6.76077 14.7866 9.53101 14.7866 10.444C14.7866 11.3571 14.7866 14.1273 9.11379 14.1273C8.44588 14.1273 7.71562 14.0961 6.94084 14.0293C6.45994 13.9892 6.05474 13.9447 5.72969 13.9002V6.89438C5.95232 6.87656 6.25512 6.8543 6.66032 6.82757C7.39948 6.78304 8.14754 6.76077 8.88225 6.76077H8.87779Z" fill="#8D979D"/>
<path d="M34.8242 11.1077C34.8242 10.4663 34.5526 9.55331 33.2613 8.85407C32.3395 8.35525 31.0972 8.11475 29.472 8.11475C27.1075 8.11475 25.2151 8.73827 23.8481 9.97197C22.4633 11.2235 21.7598 12.9694 21.7598 15.1606V26.5266H26.8181V16.2562C26.8181 13.8467 27.82 12.7734 30.0686 12.7734C31.1818 12.7734 32.1926 12.9961 33.0743 13.437L33.3949 13.5973L33.6976 13.4058C33.9782 13.2321 34.2231 12.9337 34.468 12.4661C34.704 12.0207 34.8242 11.562 34.8242 11.1032V11.1077Z" fill="#8D979D"/>
<path d="M48.8948 9.35295C47.421 8.52901 45.7467 8.11035 43.9166 8.11035C42.0866 8.11035 40.4168 8.52901 38.9518 9.35741C37.4913 10.1814 36.3113 11.3215 35.4475 12.7378C34.5792 14.163 34.1428 15.7797 34.1428 17.5523C34.1428 19.3249 34.5836 20.9461 35.4475 22.3669C36.3113 23.7832 37.4869 24.9233 38.9518 25.7473C40.4168 26.5712 42.0866 26.9943 43.9166 26.9943C45.7467 26.9943 47.421 26.5757 48.8948 25.7517C50.3687 24.9278 51.5487 23.7876 52.4036 22.3669C53.2586 20.9461 53.6905 19.3249 53.6905 17.5568C53.6905 15.7886 53.2586 14.1675 52.4036 12.7423C51.5532 11.326 50.3732 10.1858 48.8948 9.35741V9.35295ZM46.2677 21.7834C45.5731 22.1932 44.8072 22.3936 43.9166 22.3936C43.0261 22.3936 42.2513 22.1887 41.5656 21.7834C40.8754 21.3737 40.35 20.8214 39.9581 20.0865C39.5663 19.3517 39.3704 18.501 39.3704 17.5434C39.3704 16.5859 39.5707 15.7352 39.9581 15.0048C40.35 14.2699 40.8754 13.7176 41.5656 13.3079C42.2469 12.9026 43.0395 12.6977 43.9166 12.6977C44.7938 12.6977 45.5731 12.8982 46.2677 13.3079C46.9579 13.7176 47.4833 14.2699 47.8752 15.0048C48.267 15.7397 48.4629 16.5948 48.4629 17.5434C48.4629 18.4921 48.2626 19.3517 47.8752 20.0865C47.4833 20.8214 46.9579 21.3737 46.2677 21.7834Z" fill="#8D979D"/>
<path d="M80.3848 8.94772C79.9173 8.69831 79.3251 8.57361 78.626 8.57361C77.7888 8.57361 77.1432 8.79629 76.6979 9.24167C76.2972 9.64251 75.9899 10.226 75.7539 11.0321C75.2463 12.8359 74.6853 14.6664 74.0841 16.4657C73.6968 17.6326 73.3138 18.7371 72.9353 19.7704C72.7394 19.1825 72.5346 18.559 72.3164 17.8998C71.88 16.5548 71.4347 15.1296 70.9939 13.6598C70.5486 12.1856 70.1301 10.7871 69.7338 9.4599L69.6536 9.19713L69.4087 9.07243C69.3241 9.03234 69.1727 8.96554 68.6696 8.79184C68.251 8.64932 67.779 8.57361 67.267 8.57361C66.4209 8.57361 65.7664 8.77848 65.3122 9.18377C64.8936 9.55789 64.5775 10.0968 64.3638 10.7916C64.0298 11.9407 63.6736 13.161 63.2862 14.457C62.9032 15.7353 62.5114 17.0046 62.124 18.2338C61.9637 18.746 61.8034 19.2359 61.652 19.6991C61.4516 19.1112 61.2379 18.4877 61.0064 17.8196C60.5388 16.4657 60.0668 15.0227 59.5993 13.5351C59.1362 12.052 58.7221 10.6535 58.3792 9.37083L58.3035 9.0947L58.0453 8.96554C57.9651 8.92545 57.8182 8.8631 57.4085 8.72949C57.0657 8.61814 56.6248 8.5647 56.0682 8.5647C55.2623 8.5647 54.63 8.81411 54.1847 9.30402C53.7573 9.77612 53.5391 10.3373 53.5391 10.9608C53.5391 11.2414 53.6014 11.6289 53.7394 12.1767C53.8641 12.68 54.0689 13.357 54.3717 14.2611C54.7769 15.4057 55.3513 16.9467 56.0905 18.8484C56.8297 20.7636 57.8226 23.2087 59.0338 26.1214L59.1985 26.5134H63.9808L64.1367 26.1036C64.3192 25.6271 64.5508 24.9546 64.8446 24.046C65.1341 23.1597 65.4502 22.171 65.7931 21.0842C66.136 19.9975 66.4788 18.9019 66.8261 17.7929L67.1645 16.6973L67.5029 17.7929C67.8458 18.9019 68.1976 20.002 68.5538 21.0887C68.91 22.1754 69.2351 23.1641 69.5379 24.0504C69.8451 24.959 70.0811 25.6271 70.2592 26.0992L70.4151 26.5089H75.1884L75.3532 26.1259C75.9098 24.861 76.4975 23.4358 77.1031 21.9037C77.7087 20.3761 78.3054 18.8262 78.8842 17.2941C79.4586 15.7664 79.9707 14.3457 80.4026 13.0719C80.8345 11.7937 81.1507 10.7604 81.3333 10.0122L81.4179 9.66032L81.1596 9.40646C81.0794 9.32629 80.977 9.25058 80.3804 8.92991L80.3848 8.94772Z" fill="#8D979D"/>
<path d="M84.6684 1.1001C83.8313 1.1001 83.1233 1.38959 82.5667 1.95522C82.019 2.52085 81.7385 3.229 81.7385 4.06185C81.7385 4.89471 82.019 5.60286 82.5667 6.16849C83.1189 6.73857 83.8269 7.02361 84.6684 7.02361C85.51 7.02361 86.2136 6.73411 86.7702 6.16849C87.3178 5.60286 87.5984 4.89471 87.5984 4.06185C87.5984 3.229 87.3178 2.52085 86.7702 1.95522C86.218 1.38514 85.51 1.1001 84.6684 1.1001Z" fill="#8D979D"/>
<path d="M85.8928 8.68923C85.5232 8.61351 85.1536 8.57788 84.8063 8.57788C84.0627 8.57788 83.4393 8.77385 82.9495 9.16578C82.5799 9.45527 82.1436 10.0075 82.1436 10.9785V26.5266H87.2019V9.20141L86.8724 9.0188C86.6141 8.87628 86.2935 8.76494 85.8928 8.68477V8.68923Z" fill="#8D979D"/>
<path d="M102.711 11.1077C102.711 10.4663 102.439 9.55331 101.148 8.85407C100.226 8.35525 98.9839 8.11475 97.3587 8.11475C94.9943 8.11475 93.1018 8.73827 91.7348 9.97197C90.35 11.2235 89.6465 12.9694 89.6465 15.1606V26.5266H94.7048V16.2562C94.7048 13.8467 95.7067 12.7734 97.9554 12.7734C99.0685 12.7734 100.079 12.9961 100.961 13.437L101.282 13.5973L101.584 13.4058C101.865 13.2321 102.11 12.9337 102.355 12.4661C102.591 12.0207 102.711 11.562 102.711 11.1032V11.1077Z" fill="#8D979D"/>
<path d="M116.47 21.4494C115.223 22.1664 113.812 22.5272 112.271 22.5272C110.882 22.5272 109.72 22.2199 108.825 21.6053C108.201 21.1822 107.774 20.6655 107.524 20.0464C107.689 20.0509 107.854 20.0554 108.019 20.0598C108.477 20.0732 108.865 20.0776 109.181 20.0776C112.667 20.0776 115.165 19.6278 116.817 18.7014C118.563 17.7216 119.449 16.2251 119.449 14.261C119.449 12.2969 118.696 10.8227 117.218 9.71371C115.793 8.64926 113.927 8.11035 111.674 8.11035C109.822 8.11035 108.148 8.52455 106.696 9.33959C105.24 10.1591 104.082 11.2992 103.25 12.7334C102.421 14.163 102.003 15.8332 102.003 17.686C102.003 19.5387 102.413 21.151 103.219 22.5406C104.024 23.9301 105.164 25.0347 106.603 25.8185C108.032 26.5979 109.693 26.9943 111.541 26.9943C112.369 26.9943 113.228 26.9186 114.106 26.7672C114.983 26.6158 115.811 26.402 116.572 26.1214C117.343 25.8408 118.002 25.529 118.523 25.195L119.017 24.8788L117.044 21.1198L116.47 21.4494ZM111.608 12.3058C112.511 12.3058 113.242 12.4973 113.785 12.8714C114.266 13.2055 114.493 13.6286 114.493 14.1942C114.493 15.8376 111.714 16.1806 109.381 16.1806H107.72C107.547 16.1806 107.373 16.1806 107.208 16.1761C107.342 15.0983 107.756 14.2298 108.451 13.5306C109.274 12.7066 110.307 12.3058 111.603 12.3058H111.608Z" fill="#8D979D"/>
</svg>
