<svg width="519" height="92" viewBox="0 0 519 92" fill="none" xmlns="http://www.w3.org/2000/svg">
<g clip-path="url(#clip0_3_21)">
<path d="M177.918 16.1969C171.521 11.5204 162.378 9.14507 150.756 9.14507C146.496 9.14507 142.503 9.23414 138.912 9.42714C135.216 9.62014 132.514 9.90221 130.629 10.303C125.598 11.3126 122.837 14.6084 122.837 19.5817V90.456H139.921V63.6889C142.637 63.9858 144.76 64.1936 146.392 64.3124C148.485 64.4609 150.4 64.5351 152.077 64.5351C163.431 64.5351 172.278 62.1746 178.378 57.513C184.656 52.7178 187.847 45.7699 187.847 36.8327C187.847 27.8954 184.508 21.0218 177.903 16.182L177.918 16.1969ZM150.429 24.57C170.125 24.57 170.125 33.8041 170.125 36.8475C170.125 39.8909 170.125 49.1251 151.216 49.1251C148.99 49.1251 146.555 49.0211 143.973 48.7985C142.37 48.6648 141.019 48.5164 139.936 48.3679V25.0153C140.678 24.9559 141.687 24.8817 143.038 24.7926C145.502 24.6442 147.995 24.57 150.444 24.57H150.429Z" fill="#8C959A"/>
<path d="M236.917 39.0595C236.917 36.9217 236.012 33.8783 231.707 31.5475C228.635 29.8848 224.494 29.0831 219.076 29.0831C211.195 29.0831 204.887 31.1615 200.33 35.2738C195.714 39.4455 193.369 45.2651 193.369 52.5693V90.456H210.23V56.2214C210.23 48.1898 213.57 44.6119 221.065 44.6119C224.776 44.6119 228.145 45.3542 231.084 46.8239L232.153 47.3584L233.162 46.72C234.097 46.141 234.913 45.1464 235.73 43.5875C236.516 42.1029 236.917 40.5738 236.917 39.0447V39.0595Z" fill="#8C959A"/>
<path d="M283.82 33.2103C278.907 30.4638 273.326 29.0683 267.226 29.0683C261.125 29.0683 255.559 30.4638 250.676 33.2251C245.808 35.9716 241.874 39.7721 238.995 44.4931C236.101 49.2438 234.646 54.6329 234.646 60.5415C234.646 66.4502 236.116 71.8541 238.995 76.59C241.874 81.311 245.793 85.1115 250.676 87.858C255.559 90.6045 261.125 92.0148 267.226 92.0148C273.326 92.0148 278.907 90.6193 283.82 87.8728C288.732 85.1263 292.666 81.3258 295.515 76.59C298.365 71.8541 299.805 66.4502 299.805 60.5564C299.805 54.6626 298.365 49.2587 295.515 44.508C292.681 39.787 288.747 35.9864 283.82 33.2251V33.2103ZM275.062 74.6451C272.747 76.011 270.194 76.679 267.226 76.679C264.257 76.679 261.674 75.9961 259.389 74.6451C257.088 73.2793 255.337 71.4384 254.03 68.9889C252.724 66.5393 252.071 63.7037 252.071 60.5119C252.071 57.32 252.739 54.4844 254.03 52.0497C255.337 49.6001 257.088 47.7592 259.389 46.3934C261.66 45.0424 264.302 44.3595 267.226 44.3595C270.15 44.3595 272.747 45.0276 275.062 46.3934C277.363 47.7592 279.114 49.6001 280.421 52.0497C281.727 54.4993 282.38 57.3497 282.38 60.5119C282.38 63.674 281.712 66.5393 280.421 68.9889C279.114 71.4384 277.363 73.2793 275.062 74.6451Z" fill="#8C959A"/>
<path d="M388.786 31.8593C387.228 31.0279 385.254 30.6122 382.923 30.6122C380.133 30.6122 377.981 31.3545 376.497 32.8391C375.161 34.1752 374.137 36.1201 373.35 38.8072C371.658 44.8197 369.788 50.9214 367.784 56.9192C366.493 60.8088 365.216 64.4906 363.955 67.9348C363.301 65.9751 362.619 63.8967 361.891 61.6995C360.437 57.2161 358.953 52.4654 357.483 47.5662C355.999 42.6522 354.604 37.9906 353.283 33.5666L353.016 32.6907L352.199 32.275C351.917 32.1414 351.413 31.9187 349.735 31.3397C348.34 30.8646 346.767 30.6122 345.06 30.6122C342.24 30.6122 340.058 31.2951 338.544 32.6461C337.149 33.8932 336.095 35.6895 335.383 38.0055C334.269 41.8357 333.082 45.9035 331.791 50.2237C330.514 54.4844 329.208 58.7155 327.917 62.813C327.382 64.5203 326.848 66.1533 326.343 67.6973C325.676 65.7376 324.963 63.6592 324.191 61.4323C322.633 56.9192 321.06 52.1091 319.501 47.1506C317.957 42.2069 316.577 37.5453 315.434 33.2696L315.182 32.3492L314.321 31.9187C314.054 31.7851 313.564 31.5772 312.199 31.1318C311.056 30.7607 309.586 30.5825 307.731 30.5825C305.044 30.5825 302.937 31.4139 301.452 33.047C300.028 34.6206 299.3 36.4912 299.3 38.5696C299.3 39.5049 299.508 40.7965 299.968 42.6226C300.384 44.3001 301.067 46.5567 302.076 49.5704C303.427 53.3858 305.341 58.5225 307.805 64.8617C310.269 71.2454 313.579 79.3958 317.616 89.105L318.165 90.4115H334.106L334.626 89.0457C335.234 87.4572 336.006 85.2154 336.986 82.1869C337.95 79.2325 339.004 75.9367 340.147 72.3143C341.29 68.6919 342.433 65.0399 343.591 61.3432L344.719 57.6911L345.847 61.3432C346.989 65.0399 348.162 68.7068 349.349 72.3292C350.537 75.9516 351.62 79.2474 352.63 82.2017C353.654 85.2303 354.44 87.4572 355.034 89.0308L355.554 90.3966H371.465L372.014 89.1199C373.869 84.9037 375.829 80.153 377.847 75.046C379.866 69.9538 381.855 64.7875 383.784 59.6805C385.699 54.5883 387.406 49.8525 388.846 45.6066C390.285 41.3458 391.339 37.9016 391.948 35.4075L392.23 34.2346L391.369 33.3884C391.102 33.1212 390.76 32.8688 388.771 31.7999L388.786 31.8593Z" fill="#8C959A"/>
<path d="M403.065 5.70082C400.274 5.70082 397.914 6.6658 396.059 8.55123C394.233 10.4367 393.298 12.7972 393.298 15.5733C393.298 18.3495 394.233 20.71 396.059 22.5954C397.899 24.4957 400.259 25.4459 403.065 25.4459C405.87 25.4459 408.215 24.4809 410.07 22.5954C411.896 20.71 412.831 18.3495 412.831 15.5733C412.831 12.7972 411.896 10.4367 410.07 8.55123C408.23 6.65096 405.87 5.70082 403.065 5.70082Z" fill="#8C959A"/>
<path d="M407.146 30.9982C405.914 30.7458 404.683 30.6271 403.525 30.6271C401.046 30.6271 398.968 31.2803 397.335 32.5867C396.104 33.5517 394.649 35.3926 394.649 38.629V90.456H411.51V32.7055L410.412 32.0968C409.551 31.6218 408.482 31.2506 407.146 30.9834V30.9982Z" fill="#8C959A"/>
<path d="M463.207 39.0595C463.207 36.9217 462.301 33.8783 457.997 31.5475C454.925 29.8848 450.784 29.0831 445.366 29.0831C437.485 29.0831 431.176 31.1615 426.62 35.2738C422.004 39.4455 419.659 45.2651 419.659 52.5693V90.456H436.52V56.2214C436.52 48.1898 439.859 44.6119 447.355 44.6119C451.066 44.6119 454.435 45.3542 457.374 46.8239L458.442 47.3584L459.452 46.72C460.387 46.141 461.203 45.1464 462.019 43.5875C462.806 42.1029 463.207 40.5738 463.207 39.0447V39.0595Z" fill="#8C959A"/>
<path d="M509.07 73.5317C504.914 75.9219 500.209 77.1244 495.074 77.1244C490.443 77.1244 486.569 76.1 483.586 74.0513C481.508 72.641 480.083 70.9188 479.252 68.8552C479.801 68.8701 480.35 68.8849 480.899 68.8998C482.428 68.9443 483.719 68.9592 484.773 68.9592C496.395 68.9592 504.721 67.4597 510.228 64.3718C516.046 61.1057 519 56.1175 519 49.5704C519 43.0234 516.492 38.1094 511.564 34.4128C506.814 30.8646 500.595 29.0683 493.085 29.0683C486.91 29.0683 481.33 30.4489 476.491 33.1657C471.637 35.8974 467.778 39.6979 465.003 44.4783C462.242 49.2438 460.847 54.811 460.847 60.9869C460.847 67.1628 462.212 72.537 464.899 77.1689C467.585 81.8009 471.385 85.4827 476.179 88.0955C480.944 90.6936 486.48 92.0148 492.64 92.0148C495.4 92.0148 498.265 91.7625 501.189 91.2577C504.113 90.7529 506.874 90.0403 509.412 89.105C511.979 88.1698 514.176 87.1305 515.913 86.0171L517.56 84.963L510.985 72.4331L509.07 73.5317ZM492.862 43.0531C495.875 43.0531 498.309 43.6915 500.12 44.9385C501.723 46.052 502.48 47.4623 502.48 49.3477C502.48 54.8259 493.218 55.969 485.441 55.969H479.905C479.326 55.969 478.747 55.969 478.198 55.9542C478.643 52.3615 480.023 49.4665 482.339 47.1357C485.085 44.3892 488.528 43.0531 492.847 43.0531H492.862Z" fill="#8C959A"/>
<path d="M39.6066 41.1577L41.4328 39.3311C45.1796 35.5835 51.2668 35.5835 55.0137 39.3311L56.378 40.6958C60.1249 44.4435 60.1249 50.5321 56.378 54.2798L54.5519 56.1064C50.8051 59.854 44.7178 59.854 40.971 56.1064L39.6066 54.7417C35.8598 50.994 35.8598 44.9054 39.6066 41.1577Z" fill="#00799F"/>
<path d="M81.0996 75.4469L82.48 74.0662C94.9922 61.5511 100.514 32.1563 81.0848 12.723C60.2013 -8.16517 30.5161 0.564213 19.7553 11.3275L12.9871 18.0972C-4.33419 35.4224 -4.33419 63.5108 12.9871 80.836L21.9817 89.8326H47.5703L26.479 68.7366C15.8369 58.092 15.8369 40.8263 26.479 30.1818L32.5496 24.1098C36.6907 19.9678 55.3032 12.53 68.2905 25.5053C81.3371 38.5549 74.5837 56.3699 69.6857 61.2542L60.4239 70.5181C57.7077 73.2349 57.7077 77.6441 60.4239 80.3609L69.8935 89.8326H95.4821L81.0996 75.4469Z" fill="#00799F"/>
</g>
<defs>
<clipPath id="clip0_3_21">
<rect width="519" height="92" fill="white"/>
</clipPath>
</defs>
</svg>
