<svg width="90" height="90" viewBox="0 0 90 90" fill="none" xmlns="http://www.w3.org/2000/svg">
<path d="M38.1864 41.4814L39.7164 39.951C42.8556 36.8112 47.9556 36.8112 51.0948 39.951L52.2379 41.0944C55.377 44.2343 55.377 49.3354 52.2379 52.4753L50.7079 54.0056C47.5687 57.1455 42.4687 57.1455 39.3295 54.0056L38.1864 52.8623C35.0473 49.7224 35.0473 44.6212 38.1864 41.4814Z" fill="#00799F"/>
<path d="M72.9501 70.2095L74.1066 69.0528C84.5896 58.5674 89.2156 33.9398 72.9377 17.6582C55.4411 0.157691 30.5703 7.47134 21.5546 16.489L15.8841 22.1608C1.37197 36.6762 1.37197 60.2092 15.8841 74.7246L23.4199 82.2621H44.8585L27.1879 64.5875C18.2717 55.6693 18.2717 41.2037 27.1879 32.2855L32.2739 27.1983C35.7434 23.728 51.3374 17.4965 62.2183 28.3675C73.1491 39.3006 67.491 54.2265 63.3873 58.3186L55.6276 66.0801C53.3519 68.3562 53.3519 72.0504 55.6276 74.3266L63.5614 82.2621H85L72.9501 70.2095Z" fill="#00799F"/>
</svg>
